<mxfile host="app.diagrams.net" agent="Mozilla/5.0 (Windows NT 10.0; Win64; x64) AppleWebKit/537.36 (KHTML, like Gecko) Chrome/129.0.0.0 Safari/537.36" version="24.8.0" pages="2">
  <diagram name="Database" id="Qu7sAN18-eHF3yUNQ8n1">
    <mxGraphModel dx="1105" dy="549" grid="1" gridSize="10" guides="1" tooltips="1" connect="1" arrows="1" fold="1" page="1" pageScale="1" pageWidth="827" pageHeight="1169" math="0" shadow="0">
      <root>
        <mxCell id="0" />
        <mxCell id="1" parent="0" />
        <mxCell id="ktZBi00OZ3sDXtpWGSN6-1" value="Yoga Course" style="shape=table;startSize=30;container=1;collapsible=1;childLayout=tableLayout;fixedRows=1;rowLines=0;fontStyle=1;align=center;resizeLast=1;html=1;" vertex="1" parent="1">
          <mxGeometry x="180" y="120" width="200" height="270" as="geometry" />
        </mxCell>
        <mxCell id="ktZBi00OZ3sDXtpWGSN6-2" value="" style="shape=tableRow;horizontal=0;startSize=0;swimlaneHead=0;swimlaneBody=0;fillColor=none;collapsible=0;dropTarget=0;points=[[0,0.5],[1,0.5]];portConstraint=eastwest;top=0;left=0;right=0;bottom=1;" vertex="1" parent="ktZBi00OZ3sDXtpWGSN6-1">
          <mxGeometry y="30" width="200" height="30" as="geometry" />
        </mxCell>
        <mxCell id="ktZBi00OZ3sDXtpWGSN6-3" value="PK" style="shape=partialRectangle;connectable=0;fillColor=none;top=0;left=0;bottom=0;right=0;fontStyle=1;overflow=hidden;whiteSpace=wrap;html=1;" vertex="1" parent="ktZBi00OZ3sDXtpWGSN6-2">
          <mxGeometry width="30" height="30" as="geometry">
            <mxRectangle width="30" height="30" as="alternateBounds" />
          </mxGeometry>
        </mxCell>
        <mxCell id="ktZBi00OZ3sDXtpWGSN6-4" value="id" style="shape=partialRectangle;connectable=0;fillColor=none;top=0;left=0;bottom=0;right=0;align=left;spacingLeft=6;fontStyle=5;overflow=hidden;whiteSpace=wrap;html=1;" vertex="1" parent="ktZBi00OZ3sDXtpWGSN6-2">
          <mxGeometry x="30" width="170" height="30" as="geometry">
            <mxRectangle width="170" height="30" as="alternateBounds" />
          </mxGeometry>
        </mxCell>
        <mxCell id="ktZBi00OZ3sDXtpWGSN6-5" value="" style="shape=tableRow;horizontal=0;startSize=0;swimlaneHead=0;swimlaneBody=0;fillColor=none;collapsible=0;dropTarget=0;points=[[0,0.5],[1,0.5]];portConstraint=eastwest;top=0;left=0;right=0;bottom=0;" vertex="1" parent="ktZBi00OZ3sDXtpWGSN6-1">
          <mxGeometry y="60" width="200" height="30" as="geometry" />
        </mxCell>
        <mxCell id="ktZBi00OZ3sDXtpWGSN6-6" value="RF" style="shape=partialRectangle;connectable=0;fillColor=none;top=0;left=0;bottom=0;right=0;editable=1;overflow=hidden;whiteSpace=wrap;html=1;" vertex="1" parent="ktZBi00OZ3sDXtpWGSN6-5">
          <mxGeometry width="30" height="30" as="geometry">
            <mxRectangle width="30" height="30" as="alternateBounds" />
          </mxGeometry>
        </mxCell>
        <mxCell id="ktZBi00OZ3sDXtpWGSN6-7" value="daysOfWeek- string" style="shape=partialRectangle;connectable=0;fillColor=none;top=0;left=0;bottom=0;right=0;align=left;spacingLeft=6;overflow=hidden;whiteSpace=wrap;html=1;" vertex="1" parent="ktZBi00OZ3sDXtpWGSN6-5">
          <mxGeometry x="30" width="170" height="30" as="geometry">
            <mxRectangle width="170" height="30" as="alternateBounds" />
          </mxGeometry>
        </mxCell>
        <mxCell id="ktZBi00OZ3sDXtpWGSN6-8" value="" style="shape=tableRow;horizontal=0;startSize=0;swimlaneHead=0;swimlaneBody=0;fillColor=none;collapsible=0;dropTarget=0;points=[[0,0.5],[1,0.5]];portConstraint=eastwest;top=0;left=0;right=0;bottom=0;" vertex="1" parent="ktZBi00OZ3sDXtpWGSN6-1">
          <mxGeometry y="90" width="200" height="30" as="geometry" />
        </mxCell>
        <mxCell id="ktZBi00OZ3sDXtpWGSN6-9" value="RF" style="shape=partialRectangle;connectable=0;fillColor=none;top=0;left=0;bottom=0;right=0;editable=1;overflow=hidden;whiteSpace=wrap;html=1;" vertex="1" parent="ktZBi00OZ3sDXtpWGSN6-8">
          <mxGeometry width="30" height="30" as="geometry">
            <mxRectangle width="30" height="30" as="alternateBounds" />
          </mxGeometry>
        </mxCell>
        <mxCell id="ktZBi00OZ3sDXtpWGSN6-10" value="timeCourse - string (hours)" style="shape=partialRectangle;connectable=0;fillColor=none;top=0;left=0;bottom=0;right=0;align=left;spacingLeft=6;overflow=hidden;whiteSpace=wrap;html=1;" vertex="1" parent="ktZBi00OZ3sDXtpWGSN6-8">
          <mxGeometry x="30" width="170" height="30" as="geometry">
            <mxRectangle width="170" height="30" as="alternateBounds" />
          </mxGeometry>
        </mxCell>
        <mxCell id="ktZBi00OZ3sDXtpWGSN6-11" value="" style="shape=tableRow;horizontal=0;startSize=0;swimlaneHead=0;swimlaneBody=0;fillColor=none;collapsible=0;dropTarget=0;points=[[0,0.5],[1,0.5]];portConstraint=eastwest;top=0;left=0;right=0;bottom=0;" vertex="1" parent="ktZBi00OZ3sDXtpWGSN6-1">
          <mxGeometry y="120" width="200" height="30" as="geometry" />
        </mxCell>
        <mxCell id="ktZBi00OZ3sDXtpWGSN6-12" value="RF" style="shape=partialRectangle;connectable=0;fillColor=none;top=0;left=0;bottom=0;right=0;editable=1;overflow=hidden;whiteSpace=wrap;html=1;" vertex="1" parent="ktZBi00OZ3sDXtpWGSN6-11">
          <mxGeometry width="30" height="30" as="geometry">
            <mxRectangle width="30" height="30" as="alternateBounds" />
          </mxGeometry>
        </mxCell>
        <mxCell id="ktZBi00OZ3sDXtpWGSN6-13" value="capacity - int" style="shape=partialRectangle;connectable=0;fillColor=none;top=0;left=0;bottom=0;right=0;align=left;spacingLeft=6;overflow=hidden;whiteSpace=wrap;html=1;" vertex="1" parent="ktZBi00OZ3sDXtpWGSN6-11">
          <mxGeometry x="30" width="170" height="30" as="geometry">
            <mxRectangle width="170" height="30" as="alternateBounds" />
          </mxGeometry>
        </mxCell>
        <mxCell id="ktZBi00OZ3sDXtpWGSN6-14" value="" style="shape=tableRow;horizontal=0;startSize=0;swimlaneHead=0;swimlaneBody=0;fillColor=none;collapsible=0;dropTarget=0;points=[[0,0.5],[1,0.5]];portConstraint=eastwest;top=0;left=0;right=0;bottom=0;" vertex="1" parent="ktZBi00OZ3sDXtpWGSN6-1">
          <mxGeometry y="150" width="200" height="30" as="geometry" />
        </mxCell>
        <mxCell id="ktZBi00OZ3sDXtpWGSN6-15" value="RF" style="shape=partialRectangle;connectable=0;fillColor=none;top=0;left=0;bottom=0;right=0;editable=1;overflow=hidden;whiteSpace=wrap;html=1;" vertex="1" parent="ktZBi00OZ3sDXtpWGSN6-14">
          <mxGeometry width="30" height="30" as="geometry">
            <mxRectangle width="30" height="30" as="alternateBounds" />
          </mxGeometry>
        </mxCell>
        <mxCell id="ktZBi00OZ3sDXtpWGSN6-16" value="duration - int (minutes)" style="shape=partialRectangle;connectable=0;fillColor=none;top=0;left=0;bottom=0;right=0;align=left;spacingLeft=6;overflow=hidden;whiteSpace=wrap;html=1;" vertex="1" parent="ktZBi00OZ3sDXtpWGSN6-14">
          <mxGeometry x="30" width="170" height="30" as="geometry">
            <mxRectangle width="170" height="30" as="alternateBounds" />
          </mxGeometry>
        </mxCell>
        <mxCell id="ktZBi00OZ3sDXtpWGSN6-17" value="" style="shape=tableRow;horizontal=0;startSize=0;swimlaneHead=0;swimlaneBody=0;fillColor=none;collapsible=0;dropTarget=0;points=[[0,0.5],[1,0.5]];portConstraint=eastwest;top=0;left=0;right=0;bottom=0;" vertex="1" parent="ktZBi00OZ3sDXtpWGSN6-1">
          <mxGeometry y="180" width="200" height="30" as="geometry" />
        </mxCell>
        <mxCell id="ktZBi00OZ3sDXtpWGSN6-18" value="RF" style="shape=partialRectangle;connectable=0;fillColor=none;top=0;left=0;bottom=0;right=0;editable=1;overflow=hidden;whiteSpace=wrap;html=1;" vertex="1" parent="ktZBi00OZ3sDXtpWGSN6-17">
          <mxGeometry width="30" height="30" as="geometry">
            <mxRectangle width="30" height="30" as="alternateBounds" />
          </mxGeometry>
        </mxCell>
        <mxCell id="ktZBi00OZ3sDXtpWGSN6-19" value="price - float" style="shape=partialRectangle;connectable=0;fillColor=none;top=0;left=0;bottom=0;right=0;align=left;spacingLeft=6;overflow=hidden;whiteSpace=wrap;html=1;" vertex="1" parent="ktZBi00OZ3sDXtpWGSN6-17">
          <mxGeometry x="30" width="170" height="30" as="geometry">
            <mxRectangle width="170" height="30" as="alternateBounds" />
          </mxGeometry>
        </mxCell>
        <mxCell id="ktZBi00OZ3sDXtpWGSN6-20" value="" style="shape=tableRow;horizontal=0;startSize=0;swimlaneHead=0;swimlaneBody=0;fillColor=none;collapsible=0;dropTarget=0;points=[[0,0.5],[1,0.5]];portConstraint=eastwest;top=0;left=0;right=0;bottom=0;" vertex="1" parent="ktZBi00OZ3sDXtpWGSN6-1">
          <mxGeometry y="210" width="200" height="30" as="geometry" />
        </mxCell>
        <mxCell id="ktZBi00OZ3sDXtpWGSN6-21" value="RF" style="shape=partialRectangle;connectable=0;fillColor=none;top=0;left=0;bottom=0;right=0;editable=1;overflow=hidden;whiteSpace=wrap;html=1;" vertex="1" parent="ktZBi00OZ3sDXtpWGSN6-20">
          <mxGeometry width="30" height="30" as="geometry">
            <mxRectangle width="30" height="30" as="alternateBounds" />
          </mxGeometry>
        </mxCell>
        <mxCell id="ktZBi00OZ3sDXtpWGSN6-22" value="class - string" style="shape=partialRectangle;connectable=0;fillColor=none;top=0;left=0;bottom=0;right=0;align=left;spacingLeft=6;overflow=hidden;whiteSpace=wrap;html=1;" vertex="1" parent="ktZBi00OZ3sDXtpWGSN6-20">
          <mxGeometry x="30" width="170" height="30" as="geometry">
            <mxRectangle width="170" height="30" as="alternateBounds" />
          </mxGeometry>
        </mxCell>
        <mxCell id="ktZBi00OZ3sDXtpWGSN6-23" value="" style="shape=tableRow;horizontal=0;startSize=0;swimlaneHead=0;swimlaneBody=0;fillColor=none;collapsible=0;dropTarget=0;points=[[0,0.5],[1,0.5]];portConstraint=eastwest;top=0;left=0;right=0;bottom=0;" vertex="1" parent="ktZBi00OZ3sDXtpWGSN6-1">
          <mxGeometry y="240" width="200" height="30" as="geometry" />
        </mxCell>
        <mxCell id="ktZBi00OZ3sDXtpWGSN6-24" value="" style="shape=partialRectangle;connectable=0;fillColor=none;top=0;left=0;bottom=0;right=0;editable=1;overflow=hidden;whiteSpace=wrap;html=1;" vertex="1" parent="ktZBi00OZ3sDXtpWGSN6-23">
          <mxGeometry width="30" height="30" as="geometry">
            <mxRectangle width="30" height="30" as="alternateBounds" />
          </mxGeometry>
        </mxCell>
        <mxCell id="ktZBi00OZ3sDXtpWGSN6-25" value="description - string" style="shape=partialRectangle;connectable=0;fillColor=none;top=0;left=0;bottom=0;right=0;align=left;spacingLeft=6;overflow=hidden;whiteSpace=wrap;html=1;" vertex="1" parent="ktZBi00OZ3sDXtpWGSN6-23">
          <mxGeometry x="30" width="170" height="30" as="geometry">
            <mxRectangle width="170" height="30" as="alternateBounds" />
          </mxGeometry>
        </mxCell>
        <mxCell id="ktZBi00OZ3sDXtpWGSN6-26" value="Class" style="shape=table;startSize=30;container=1;collapsible=1;childLayout=tableLayout;fixedRows=1;rowLines=0;fontStyle=1;align=center;resizeLast=1;html=1;" vertex="1" parent="1">
          <mxGeometry x="480" y="120" width="250" height="150" as="geometry" />
        </mxCell>
        <mxCell id="ktZBi00OZ3sDXtpWGSN6-27" value="" style="shape=tableRow;horizontal=0;startSize=0;swimlaneHead=0;swimlaneBody=0;fillColor=none;collapsible=0;dropTarget=0;points=[[0,0.5],[1,0.5]];portConstraint=eastwest;top=0;left=0;right=0;bottom=1;" vertex="1" parent="ktZBi00OZ3sDXtpWGSN6-26">
          <mxGeometry y="30" width="250" height="30" as="geometry" />
        </mxCell>
        <mxCell id="ktZBi00OZ3sDXtpWGSN6-28" value="PK" style="shape=partialRectangle;connectable=0;fillColor=none;top=0;left=0;bottom=0;right=0;fontStyle=1;overflow=hidden;whiteSpace=wrap;html=1;" vertex="1" parent="ktZBi00OZ3sDXtpWGSN6-27">
          <mxGeometry width="30" height="30" as="geometry">
            <mxRectangle width="30" height="30" as="alternateBounds" />
          </mxGeometry>
        </mxCell>
        <mxCell id="ktZBi00OZ3sDXtpWGSN6-29" value="id" style="shape=partialRectangle;connectable=0;fillColor=none;top=0;left=0;bottom=0;right=0;align=left;spacingLeft=6;fontStyle=5;overflow=hidden;whiteSpace=wrap;html=1;" vertex="1" parent="ktZBi00OZ3sDXtpWGSN6-27">
          <mxGeometry x="30" width="220" height="30" as="geometry">
            <mxRectangle width="220" height="30" as="alternateBounds" />
          </mxGeometry>
        </mxCell>
        <mxCell id="ktZBi00OZ3sDXtpWGSN6-30" value="" style="shape=tableRow;horizontal=0;startSize=0;swimlaneHead=0;swimlaneBody=0;fillColor=none;collapsible=0;dropTarget=0;points=[[0,0.5],[1,0.5]];portConstraint=eastwest;top=0;left=0;right=0;bottom=0;" vertex="1" parent="ktZBi00OZ3sDXtpWGSN6-26">
          <mxGeometry y="60" width="250" height="30" as="geometry" />
        </mxCell>
        <mxCell id="ktZBi00OZ3sDXtpWGSN6-31" value="" style="shape=partialRectangle;connectable=0;fillColor=none;top=0;left=0;bottom=0;right=0;editable=1;overflow=hidden;whiteSpace=wrap;html=1;" vertex="1" parent="ktZBi00OZ3sDXtpWGSN6-30">
          <mxGeometry width="30" height="30" as="geometry">
            <mxRectangle width="30" height="30" as="alternateBounds" />
          </mxGeometry>
        </mxCell>
        <mxCell id="ktZBi00OZ3sDXtpWGSN6-32" value="date - string (match &quot;daysOfWeek)" style="shape=partialRectangle;connectable=0;fillColor=none;top=0;left=0;bottom=0;right=0;align=left;spacingLeft=6;overflow=hidden;whiteSpace=wrap;html=1;" vertex="1" parent="ktZBi00OZ3sDXtpWGSN6-30">
          <mxGeometry x="30" width="220" height="30" as="geometry">
            <mxRectangle width="220" height="30" as="alternateBounds" />
          </mxGeometry>
        </mxCell>
        <mxCell id="ktZBi00OZ3sDXtpWGSN6-33" value="" style="shape=tableRow;horizontal=0;startSize=0;swimlaneHead=0;swimlaneBody=0;fillColor=none;collapsible=0;dropTarget=0;points=[[0,0.5],[1,0.5]];portConstraint=eastwest;top=0;left=0;right=0;bottom=0;" vertex="1" parent="ktZBi00OZ3sDXtpWGSN6-26">
          <mxGeometry y="90" width="250" height="30" as="geometry" />
        </mxCell>
        <mxCell id="ktZBi00OZ3sDXtpWGSN6-34" value="" style="shape=partialRectangle;connectable=0;fillColor=none;top=0;left=0;bottom=0;right=0;editable=1;overflow=hidden;whiteSpace=wrap;html=1;" vertex="1" parent="ktZBi00OZ3sDXtpWGSN6-33">
          <mxGeometry width="30" height="30" as="geometry">
            <mxRectangle width="30" height="30" as="alternateBounds" />
          </mxGeometry>
        </mxCell>
        <mxCell id="ktZBi00OZ3sDXtpWGSN6-35" value="teacher" style="shape=partialRectangle;connectable=0;fillColor=none;top=0;left=0;bottom=0;right=0;align=left;spacingLeft=6;overflow=hidden;whiteSpace=wrap;html=1;" vertex="1" parent="ktZBi00OZ3sDXtpWGSN6-33">
          <mxGeometry x="30" width="220" height="30" as="geometry">
            <mxRectangle width="220" height="30" as="alternateBounds" />
          </mxGeometry>
        </mxCell>
        <mxCell id="ktZBi00OZ3sDXtpWGSN6-36" value="" style="shape=tableRow;horizontal=0;startSize=0;swimlaneHead=0;swimlaneBody=0;fillColor=none;collapsible=0;dropTarget=0;points=[[0,0.5],[1,0.5]];portConstraint=eastwest;top=0;left=0;right=0;bottom=0;" vertex="1" parent="ktZBi00OZ3sDXtpWGSN6-26">
          <mxGeometry y="120" width="250" height="30" as="geometry" />
        </mxCell>
        <mxCell id="ktZBi00OZ3sDXtpWGSN6-37" value="" style="shape=partialRectangle;connectable=0;fillColor=none;top=0;left=0;bottom=0;right=0;editable=1;overflow=hidden;whiteSpace=wrap;html=1;" vertex="1" parent="ktZBi00OZ3sDXtpWGSN6-36">
          <mxGeometry width="30" height="30" as="geometry">
            <mxRectangle width="30" height="30" as="alternateBounds" />
          </mxGeometry>
        </mxCell>
        <mxCell id="ktZBi00OZ3sDXtpWGSN6-38" value="comment" style="shape=partialRectangle;connectable=0;fillColor=none;top=0;left=0;bottom=0;right=0;align=left;spacingLeft=6;overflow=hidden;whiteSpace=wrap;html=1;" vertex="1" parent="ktZBi00OZ3sDXtpWGSN6-36">
          <mxGeometry x="30" width="220" height="30" as="geometry">
            <mxRectangle width="220" height="30" as="alternateBounds" />
          </mxGeometry>
        </mxCell>
        <mxCell id="ktZBi00OZ3sDXtpWGSN6-39" value="" style="edgeStyle=entityRelationEdgeStyle;fontSize=12;html=1;endArrow=ERzeroToMany;endFill=1;rounded=0;exitX=1;exitY=0.5;exitDx=0;exitDy=0;entryX=0;entryY=0.5;entryDx=0;entryDy=0;" edge="1" parent="1" source="ktZBi00OZ3sDXtpWGSN6-20" target="ktZBi00OZ3sDXtpWGSN6-30">
          <mxGeometry width="100" height="100" relative="1" as="geometry">
            <mxPoint x="510" y="420" as="sourcePoint" />
            <mxPoint x="610" y="320" as="targetPoint" />
          </mxGeometry>
        </mxCell>
      </root>
    </mxGraphModel>
  </diagram>
  <diagram id="B4Cg75HxRvvAkZBbAUJZ" name="Design">
    <mxGraphModel dx="1050" dy="522" grid="1" gridSize="10" guides="1" tooltips="1" connect="1" arrows="1" fold="1" page="1" pageScale="1" pageWidth="827" pageHeight="1169" math="0" shadow="0">
      <root>
        <mxCell id="0" />
        <mxCell id="1" parent="0" />
        <mxCell id="dASC114HM6m3GAWfFmNL-3" value="" style="rounded=0;whiteSpace=wrap;html=1;" vertex="1" parent="1">
          <mxGeometry x="244" y="80" width="316" height="400" as="geometry" />
        </mxCell>
        <mxCell id="OmDmfE5nEwy6JhMSHAez-1" value="Yoga Plus" style="text;html=1;align=center;verticalAlign=middle;whiteSpace=wrap;rounded=0;" vertex="1" parent="1">
          <mxGeometry x="244" y="80" width="60" height="30" as="geometry" />
        </mxCell>
        <mxCell id="OmDmfE5nEwy6JhMSHAez-3" value="Create Yoga Course" style="rounded=1;html=1;shadow=0;dashed=0;whiteSpace=wrap;fontSize=10;fillColor=#E6E6E6;align=center;strokeColor=#E6E6E6;fontColor=#333333;" vertex="1" parent="1">
          <mxGeometry x="447" y="86.56" width="105.5" height="16.88" as="geometry" />
        </mxCell>
        <mxCell id="OmDmfE5nEwy6JhMSHAez-6" value="IMAGE" style="rounded=0;whiteSpace=wrap;html=1;" vertex="1" parent="1">
          <mxGeometry x="244" y="120" width="316" height="90" as="geometry" />
        </mxCell>
        <mxCell id="OmDmfE5nEwy6JhMSHAez-7" value="List Class Yoga" style="text;html=1;align=center;verticalAlign=middle;whiteSpace=wrap;rounded=0;" vertex="1" parent="1">
          <mxGeometry x="357" y="220" width="90" height="30" as="geometry" />
        </mxCell>
        <mxCell id="NrBIfsGKW2yngS-ujAXx-1" value="" style="rounded=1;whiteSpace=wrap;html=1;" vertex="1" parent="1">
          <mxGeometry x="250" y="250" width="300" height="100" as="geometry" />
        </mxCell>
        <mxCell id="NrBIfsGKW2yngS-ujAXx-2" value="Class: Hatha Yoga" style="text;html=1;align=center;verticalAlign=middle;whiteSpace=wrap;rounded=0;" vertex="1" parent="1">
          <mxGeometry x="250" y="250" width="120" height="30" as="geometry" />
        </mxCell>
        <mxCell id="ojULo0PDcQAoU5sdYMIX-1" value="Date: 17/10/2024" style="text;html=1;align=center;verticalAlign=middle;whiteSpace=wrap;rounded=0;" vertex="1" parent="1">
          <mxGeometry x="250" y="285" width="110" height="30" as="geometry" />
        </mxCell>
        <mxCell id="kzrOiMN437kvPBKiKluk-1" value="Teacher: David" style="text;html=1;align=center;verticalAlign=middle;whiteSpace=wrap;rounded=0;" vertex="1" parent="1">
          <mxGeometry x="250" y="320" width="100" height="30" as="geometry" />
        </mxCell>
        <mxCell id="_DzRsonxga73gAE9T1hT-1" value="Update" style="rounded=1;html=1;shadow=0;dashed=0;whiteSpace=wrap;fontSize=10;fillColor=#E6E6E6;align=center;strokeColor=#E6E6E6;fontColor=#333333;" vertex="1" parent="1">
          <mxGeometry x="430" y="268.12" width="50" height="16.88" as="geometry" />
        </mxCell>
        <mxCell id="_DzRsonxga73gAE9T1hT-2" value="Delete" style="rounded=1;html=1;shadow=0;dashed=0;whiteSpace=wrap;fontSize=10;fillColor=#E6E6E6;align=center;strokeColor=#E6E6E6;fontColor=#333333;" vertex="1" parent="1">
          <mxGeometry x="490" y="268.12" width="50" height="16.88" as="geometry" />
        </mxCell>
        <mxCell id="OMkdVWp0ENtOgQ8v_DJ7-1" value="Detail" style="rounded=1;html=1;shadow=0;dashed=0;whiteSpace=wrap;fontSize=10;fillColor=#E6E6E6;align=center;strokeColor=#E6E6E6;fontColor=#333333;" vertex="1" parent="1">
          <mxGeometry x="460" y="303.12" width="50" height="16.88" as="geometry" />
        </mxCell>
        <mxCell id="mezN3tm7LlnXC2PhxbCd-23" value="" style="rounded=1;whiteSpace=wrap;html=1;" vertex="1" parent="1">
          <mxGeometry x="252" y="370" width="300" height="100" as="geometry" />
        </mxCell>
        <mxCell id="mezN3tm7LlnXC2PhxbCd-24" value="Class: Hatha Yoga" style="text;html=1;align=center;verticalAlign=middle;whiteSpace=wrap;rounded=0;" vertex="1" parent="1">
          <mxGeometry x="252" y="370" width="120" height="30" as="geometry" />
        </mxCell>
        <mxCell id="mezN3tm7LlnXC2PhxbCd-25" value="Date: 17/10/2024" style="text;html=1;align=center;verticalAlign=middle;whiteSpace=wrap;rounded=0;" vertex="1" parent="1">
          <mxGeometry x="252" y="405" width="110" height="30" as="geometry" />
        </mxCell>
        <mxCell id="mezN3tm7LlnXC2PhxbCd-26" value="Teacher: David" style="text;html=1;align=center;verticalAlign=middle;whiteSpace=wrap;rounded=0;" vertex="1" parent="1">
          <mxGeometry x="252" y="440" width="100" height="30" as="geometry" />
        </mxCell>
        <mxCell id="mezN3tm7LlnXC2PhxbCd-27" value="Update" style="rounded=1;html=1;shadow=0;dashed=0;whiteSpace=wrap;fontSize=10;fillColor=#E6E6E6;align=center;strokeColor=#E6E6E6;fontColor=#333333;" vertex="1" parent="1">
          <mxGeometry x="432" y="388.12" width="50" height="16.88" as="geometry" />
        </mxCell>
        <mxCell id="mezN3tm7LlnXC2PhxbCd-28" value="Delete" style="rounded=1;html=1;shadow=0;dashed=0;whiteSpace=wrap;fontSize=10;fillColor=#E6E6E6;align=center;strokeColor=#E6E6E6;fontColor=#333333;" vertex="1" parent="1">
          <mxGeometry x="492" y="388.12" width="50" height="16.88" as="geometry" />
        </mxCell>
        <mxCell id="mezN3tm7LlnXC2PhxbCd-29" value="Detail" style="rounded=1;html=1;shadow=0;dashed=0;whiteSpace=wrap;fontSize=10;fillColor=#E6E6E6;align=center;strokeColor=#E6E6E6;fontColor=#333333;" vertex="1" parent="1">
          <mxGeometry x="462" y="423.12" width="50" height="16.88" as="geometry" />
        </mxCell>
      </root>
    </mxGraphModel>
  </diagram>
</mxfile>
